<svg width="525" height="80" viewBox="0 0 525 80" fill="none" xmlns="http://www.w3.org/2000/svg">
<path d="M41.288 79.7579C33.3042 79.7579 26.2727 78.0732 20.1933 74.704C14.114 71.3347 9.35302 66.6836 5.91049 60.7507C2.54121 54.8179 0.856567 48.006 0.856567 40.3153C0.856567 32.5513 2.54121 25.7028 5.91049 19.77C9.35302 13.8371 14.114 9.18604 20.1933 5.81675C26.2727 2.44747 33.3042 0.762824 41.288 0.762824C49.2717 0.762824 56.3033 2.44747 62.3826 5.81675C68.462 9.11279 73.1863 13.7272 76.5556 19.6601C79.9981 25.593 81.7194 32.478 81.7194 40.3153C81.7194 48.006 79.9981 54.8179 76.5556 60.7507C73.1863 66.6836 68.462 71.3347 62.3826 74.704C56.3033 78.0732 49.2717 79.7579 41.288 79.7579ZM41.288 59.7619C45.9024 59.7619 49.6746 57.9674 52.6044 54.3784C55.6074 50.7894 57.109 46.065 57.109 40.2054C57.109 36.2502 56.4131 32.771 55.0215 29.768C53.7031 26.7649 51.8353 24.4211 49.4182 22.7364C47.0744 20.9785 44.3277 20.0996 41.1781 20.0996C36.5637 20.0996 32.7915 21.9673 29.8617 25.7029C26.9319 29.3651 25.467 34.1993 25.467 40.2054C25.467 46.065 26.9319 50.7894 29.8617 54.3784C32.7915 57.9674 36.6003 59.7619 41.288 59.7619ZM90.6281 78V2.41084H113.481L132.378 39.1067L150.836 2.41084H173.688V78H150.836V38.4475L136.883 64.8158H127.544L113.481 38.4475V78H90.6281ZM206.29 78V2.41084H229.142L248.04 39.1067L266.498 2.41084H289.35V78H266.498V38.4475L252.544 64.8158H243.206L229.142 38.4475V78H206.29ZM301.459 78V2.41084H326.289V78H301.459ZM374.184 79.7579C366.274 79.7579 359.389 78.1465 353.529 74.9237C347.743 71.7009 343.238 67.2329 340.016 61.5198C336.793 55.8067 335.181 49.2146 335.181 41.7436C335.181 33.7598 336.866 26.6917 340.235 20.5391C343.605 14.3864 348.329 9.55226 354.408 6.03648C360.488 2.52071 367.556 0.762824 375.613 0.762824C384.402 0.762824 391.397 2.52071 396.598 6.03648L393.301 23.2858C388.687 21.3081 383.889 20.3193 378.909 20.3193C372.903 20.3193 368.178 22.1138 364.736 25.7029C361.293 29.2919 359.572 34.2726 359.572 40.6449C359.572 47.0905 361.11 52.1078 364.186 55.6968C367.336 59.2858 371.328 61.0803 376.162 61.0803C377.92 61.0803 379.385 60.9338 380.557 60.6409V41.8534L399.564 39.6561V74.0448C395.389 75.9491 391.141 77.3774 386.819 78.3296C382.498 79.2818 378.286 79.7579 374.184 79.7579ZM463.754 79.0987L411.018 55.3672V36.9094L463.754 13.1779V29.6581L424.641 46.1383L463.754 62.6185V79.0987ZM495.793 79.2085C491.984 79.2085 488.139 78.8057 484.257 78C480.448 77.2675 476.932 76.2055 473.709 74.8138L477.335 58.004C483.268 60.4211 488.651 61.6297 493.486 61.6297C499.492 61.6297 502.495 59.3591 502.495 54.8179C502.495 51.888 500.957 49.8006 497.88 48.5554C494.804 47.237 489.677 46.5778 482.499 46.5778V31.5259C495.536 31.5259 502.055 28.9256 502.055 23.7252C502.055 22.1138 501.286 20.8687 499.748 19.9897C498.283 19.0375 496.232 18.5614 493.595 18.5614C487.443 18.5614 481.913 19.8432 477.005 22.4068L472.721 6.91543C479.899 2.81369 487.992 0.762824 497.001 0.762824C504.399 0.762824 510.222 2.44747 514.47 5.81675C518.719 9.11279 520.843 13.654 520.843 19.4404C520.843 23.1026 519.927 26.5085 518.096 29.6581C516.338 32.7344 513.811 35.3346 510.515 37.4587C515.276 39.1434 518.719 41.6703 520.843 45.0396C523.04 48.3356 524.139 51.7416 524.139 55.2573C524.139 60.1648 522.967 64.413 520.623 68.002C518.279 71.591 514.983 74.3744 510.735 76.352C506.487 78.2564 501.506 79.2085 495.793 79.2085Z" fill="white"/>
</svg>
