<svg width="260" height="34" viewBox="0 0 260 34" fill="none" xmlns="http://www.w3.org/2000/svg">
<path d="M0.560205 33V0.927615H11.4062C16.6817 0.927615 20.6539 1.79653 23.3228 3.53437C26.0226 5.24117 27.3725 7.77034 27.3725 11.1219C27.3725 13.4493 26.7829 15.4354 25.6037 17.0802C24.4555 18.6939 22.8262 19.9352 20.716 20.8041C18.6058 21.642 16.1231 22.0609 13.2681 22.0609H10.8476V33H0.560205ZM12.8492 15.5906C14.4939 15.5906 15.7663 15.2492 16.6662 14.5665C17.5662 13.8838 18.0161 12.8597 18.0161 11.4943C18.0161 10.2219 17.5817 9.27543 16.7128 8.65478C15.8439 8.00309 14.587 7.67725 12.9423 7.67725H10.8476V15.5906H12.8492ZM46.4792 33.7448C43.0966 33.7448 40.1174 33.031 37.5417 31.6035C34.966 30.176 32.9489 28.2054 31.4903 25.6918C30.0628 23.1781 29.3491 20.2921 29.3491 17.0336C29.3491 13.7442 30.0628 10.8426 31.4903 8.32893C32.9489 5.81528 34.966 3.8447 37.5417 2.41719C40.1174 0.989681 43.0966 0.275927 46.4792 0.275927C49.8617 0.275927 52.8409 0.989681 55.4166 2.41719C57.9923 3.81366 59.9939 5.76873 61.4214 8.28239C62.88 10.796 63.6093 13.7131 63.6093 17.0336C63.6093 20.2921 62.88 23.1781 61.4214 25.6918C59.9939 28.2054 57.9923 30.176 55.4166 31.6035C52.8409 33.031 49.8617 33.7448 46.4792 33.7448ZM46.4792 25.2728C48.4342 25.2728 50.0324 24.5125 51.2737 22.9919C52.5461 21.4713 53.1822 19.4697 53.1822 16.9871C53.1822 15.3113 52.8874 13.8373 52.2978 12.5649C51.7392 11.2926 50.9479 10.2995 49.9238 9.58576C48.9307 8.84098 47.767 8.46858 46.4326 8.46858C44.4775 8.46858 42.8793 9.25992 41.638 10.8426C40.3967 12.3942 39.7761 14.4424 39.7761 16.9871C39.7761 19.4697 40.3967 21.4713 41.638 22.9919C42.8793 24.5125 44.4931 25.2728 46.4792 25.2728ZM91.6359 33.7448C89.4015 33.7448 87.555 33.4189 86.0965 32.7673C84.638 32.0845 83.4742 31.1535 82.6053 29.9743C81.7364 28.7951 81.0847 27.4141 80.6503 25.8314C80.2158 24.2488 79.921 22.542 79.7658 20.711H77.578V33H67.3837V0.974164H80.5572C85.6465 0.974164 89.3084 1.87411 91.5428 3.67401C93.8082 5.44288 94.9409 7.84793 94.9409 10.8891C94.9409 12.7201 94.4443 14.3648 93.4513 15.8234C92.4582 17.2509 90.86 18.4456 88.6567 19.4076C88.7808 20.0904 88.8895 20.649 88.9826 21.0834C89.0757 21.5179 89.2153 21.9989 89.4015 22.5264C89.8049 23.6436 90.3014 24.4194 90.8911 24.8539C91.5117 25.2884 92.3496 25.5056 93.4047 25.5056C94.0875 25.5056 94.7702 25.4125 95.4529 25.2263L96.0115 32.8604C95.3908 33.1086 94.7236 33.3103 94.0099 33.4655C93.3271 33.6517 92.5358 33.7448 91.6359 33.7448ZM77.578 14.3338H79.3469C81.6433 14.3338 83.257 14.0855 84.188 13.589C85.15 13.0614 85.631 12.177 85.631 10.9357C85.631 9.88057 85.2431 9.12027 84.4673 8.65478C83.6915 8.15825 82.4657 7.90999 80.7899 7.90999H77.578V14.3338ZM103.414 33V8.32893H96.1984V0.974164H121.475V8.32893H114.259V33H103.414ZM124.388 33V0.974164H146.453V8.04964H134.396V14.52H145.568V20.7576H134.396V33H124.388ZM165.58 33.7448C162.197 33.7448 159.218 33.031 156.642 31.6035C154.066 30.176 152.049 28.2054 150.591 25.6918C149.163 23.1781 148.449 20.2921 148.449 17.0336C148.449 13.7442 149.163 10.8426 150.591 8.32893C152.049 5.81528 154.066 3.8447 156.642 2.41719C159.218 0.989681 162.197 0.275927 165.58 0.275927C168.962 0.275927 171.941 0.989681 174.517 2.41719C177.093 3.81366 179.094 5.76873 180.522 8.28239C181.98 10.796 182.71 13.7131 182.71 17.0336C182.71 20.2921 181.98 23.1781 180.522 25.6918C179.094 28.2054 177.093 30.176 174.517 31.6035C171.941 33.031 168.962 33.7448 165.58 33.7448ZM165.58 25.2728C167.535 25.2728 169.133 24.5125 170.374 22.9919C171.646 21.4713 172.283 19.4697 172.283 16.9871C172.283 15.3113 171.988 13.8373 171.398 12.5649C170.84 11.2926 170.048 10.2995 169.024 9.58576C168.031 8.84098 166.867 8.46858 165.533 8.46858C163.578 8.46858 161.98 9.25992 160.738 10.8426C159.497 12.3942 158.877 14.4424 158.877 16.9871C158.877 19.4697 159.497 21.4713 160.738 22.9919C161.98 24.5125 163.593 25.2728 165.58 25.2728ZM186.484 33V0.974164H196.539V25.6452H207.897L207.431 33H186.484ZM211.441 33V0.974164H221.961V33H211.441ZM242.859 33.7448C239.476 33.7448 236.497 33.031 233.921 31.6035C231.345 30.176 229.328 28.2054 227.87 25.6918C226.442 23.1781 225.728 20.2921 225.728 17.0336C225.728 13.7442 226.442 10.8426 227.87 8.32893C229.328 5.81528 231.345 3.8447 233.921 2.41719C236.497 0.989681 239.476 0.275927 242.859 0.275927C246.241 0.275927 249.22 0.989681 251.796 2.41719C254.372 3.81366 256.373 5.76873 257.801 8.28239C259.259 10.796 259.989 13.7131 259.989 17.0336C259.989 20.2921 259.259 23.1781 257.801 25.6918C256.373 28.2054 254.372 30.176 251.796 31.6035C249.22 33.031 246.241 33.7448 242.859 33.7448ZM242.859 25.2728C244.814 25.2728 246.412 24.5125 247.653 22.9919C248.925 21.4713 249.562 19.4697 249.562 16.9871C249.562 15.3113 249.267 13.8373 248.677 12.5649C248.119 11.2926 247.327 10.2995 246.303 9.58576C245.31 8.84098 244.146 8.46858 242.812 8.46858C240.857 8.46858 239.259 9.25992 238.017 10.8426C236.776 12.3942 236.155 14.4424 236.155 16.9871C236.155 19.4697 236.776 21.4713 238.017 22.9919C239.259 24.5125 240.872 25.2728 242.859 25.2728Z" fill="white"/>
</svg>
