<svg width="1154" height="98" viewBox="0 0 1154 98" fill="none" xmlns="http://www.w3.org/2000/svg">
<path d="M71.3918 97.7762L43.5952 79.5382C42.7163 79.6846 41.9106 79.7579 41.1781 79.7579C33.2676 79.7579 26.2727 78.0732 20.1933 74.704C14.114 71.3347 9.35302 66.6836 5.91049 60.7507C2.54121 54.8179 0.856567 48.006 0.856567 40.3153C0.856567 32.5513 2.54121 25.7028 5.91049 19.77C9.35302 13.8371 14.114 9.18604 20.1933 5.81675C26.2727 2.44747 33.3042 0.762824 41.288 0.762824C49.2717 0.762824 56.3033 2.44747 62.3826 5.81675C68.462 9.11279 73.1863 13.7272 76.5556 19.6601C79.9981 25.593 81.7194 32.478 81.7194 40.3153C81.7194 46.3214 80.5108 52.0345 78.0937 57.4547C75.7499 62.8016 72.2707 67.4161 67.6563 71.2981L88.2016 84.7019L71.3918 97.7762ZM41.288 59.7619C45.9024 59.7619 49.6746 57.9674 52.6044 54.3784C55.6074 50.7894 57.109 46.065 57.109 40.2054C57.109 36.2502 56.4131 32.771 55.0215 29.768C53.7031 26.7649 51.8353 24.4211 49.4182 22.7364C47.0744 20.9785 44.3277 20.0996 41.1781 20.0996C36.5637 20.0996 32.7915 21.9673 29.8617 25.7029C26.9319 29.3651 25.467 34.1993 25.467 40.2054C25.467 46.065 26.9319 50.7894 29.8617 54.3784C32.7915 57.9674 36.6003 59.7619 41.288 59.7619ZM126.006 79.7579C118.681 79.7579 112.235 78.4395 106.669 75.8026C101.102 73.1658 96.7807 69.3937 93.7044 64.4862C90.6281 59.5056 89.09 53.5727 89.09 46.6876V2.41084H113.481V45.589C113.481 50.4964 114.653 54.122 116.996 56.4659C119.414 58.7365 122.563 59.8718 126.445 59.8718C130.547 59.8718 133.66 58.6999 135.784 56.356C137.981 54.0122 139.08 50.7894 139.08 46.6876V2.41084H163.8V46.6876C163.8 53.2065 162.189 58.9562 158.966 63.9369C155.743 68.9176 151.275 72.7996 145.562 75.5829C139.922 78.3662 133.403 79.7579 126.006 79.7579ZM174.317 78V2.41084H227.383V19.1108H201.015V32.5147H225.076V46.358H201.015V60.7507H227.383V78H174.317ZM237.298 78V2.41084H290.364V19.1108H263.995V32.5147H288.057V46.358H263.995V60.7507H290.364V78H237.298ZM357.52 79.7579C352.246 79.7579 347.888 78.9888 344.445 77.4507C341.003 75.8393 338.256 73.6419 336.205 70.8586C334.154 68.0753 332.616 64.8158 331.591 61.0803C330.565 57.3448 329.87 53.3163 329.503 48.9949H324.34V78H300.279V2.41084H331.371C343.383 2.41084 352.026 4.53495 357.3 8.78318C362.647 12.9582 365.32 18.6347 365.32 25.8127C365.32 30.1342 364.148 34.0162 361.805 37.4587C359.461 40.828 355.689 43.6479 350.488 45.9186C350.781 47.53 351.038 48.8484 351.257 49.8738C351.477 50.8992 351.807 52.0345 352.246 53.2797C353.198 55.9165 354.37 57.7477 355.762 58.7731C357.227 59.7985 359.204 60.3113 361.695 60.3113C363.306 60.3113 364.918 60.0915 366.529 59.652L367.847 77.6704C366.382 78.2564 364.808 78.7325 363.123 79.0987C361.512 79.5382 359.644 79.7579 357.52 79.7579ZM324.34 33.9429H328.515C333.935 33.9429 337.743 33.357 339.941 32.1851C342.211 30.9399 343.347 28.8524 343.347 25.9226C343.347 23.4322 342.431 21.6377 340.6 20.5391C338.769 19.3671 335.876 18.7812 331.92 18.7812H324.34V33.9429ZM431.165 79.7579C423.254 79.7579 416.333 78.1831 410.4 75.0336C404.54 71.8108 399.962 67.3062 396.666 61.5198C393.443 55.7334 391.832 48.9949 391.832 41.3041C391.832 33.3936 393.517 26.3987 396.886 20.3193C400.328 14.24 405.016 9.47901 410.949 6.03648C416.955 2.52071 423.84 0.762824 431.604 0.762824C440.247 0.762824 447.022 2.44747 451.93 5.81675L448.963 23.2858C446.839 22.2603 444.605 21.5279 442.261 21.0884C439.991 20.5757 437.83 20.3193 435.779 20.3193C429.773 20.3193 425.049 22.1138 421.606 25.7029C418.164 29.2919 416.442 34.2726 416.442 40.6449C416.442 46.651 418.09 51.3753 421.386 54.8179C424.756 58.1871 429.407 59.8718 435.34 59.8718C437.684 59.8718 439.808 59.6521 441.712 59.2126C443.69 58.7731 446.107 57.9674 448.963 56.7955L452.04 74.1546C445.667 77.8901 438.709 79.7579 431.165 79.7579ZM494.064 79.7579C486.08 79.7579 479.049 78.0732 472.969 74.704C466.89 71.3347 462.129 66.6836 458.687 60.7507C455.317 54.8179 453.633 48.006 453.633 40.3153C453.633 32.5513 455.317 25.7028 458.687 19.77C462.129 13.8371 466.89 9.18604 472.969 5.81675C479.049 2.44747 486.08 0.762824 494.064 0.762824C502.048 0.762824 509.079 2.44747 515.159 5.81675C521.238 9.11279 525.962 13.7272 529.332 19.6601C532.774 25.593 534.496 32.478 534.496 40.3153C534.496 48.006 532.774 54.8179 529.332 60.7507C525.962 66.6836 521.238 71.3347 515.159 74.704C509.079 78.0732 502.048 79.7579 494.064 79.7579ZM494.064 59.7619C498.679 59.7619 502.451 57.9674 505.381 54.3784C508.384 50.7894 509.885 46.065 509.885 40.2054C509.885 36.2502 509.189 32.771 507.798 29.768C506.479 26.7649 504.611 24.4211 502.194 22.7364C499.851 20.9785 497.104 20.0996 493.954 20.0996C489.34 20.0996 485.568 21.9673 482.638 25.7029C479.708 29.3651 478.243 34.1993 478.243 40.2054C478.243 46.065 479.708 50.7894 482.638 54.3784C485.568 57.9674 489.376 59.7619 494.064 59.7619ZM543.404 78V2.41084H566.257L585.154 39.1067L603.612 2.41084H626.464V78H603.612V38.4475L589.659 64.8158H580.32L566.257 38.4475V78H543.404ZM638.573 78V2.41084H661.426L680.323 39.1067L698.781 2.41084H721.633V78H698.781V38.4475L684.828 64.8158H675.489L661.426 38.4475V78H638.573ZM769.119 79.7579C761.795 79.7579 755.349 78.4395 749.783 75.8026C744.216 73.1658 739.895 69.3937 736.818 64.4862C733.742 59.5056 732.204 53.5727 732.204 46.6876V2.41084H756.594V45.589C756.594 50.4964 757.766 54.122 760.11 56.4659C762.527 58.7365 765.677 59.8718 769.559 59.8718C773.661 59.8718 776.774 58.6999 778.898 56.356C781.095 54.0122 782.194 50.7894 782.194 46.6876V2.41084H806.914V46.6876C806.914 53.2065 805.303 58.9562 802.08 63.9369C798.857 68.9176 794.389 72.7996 788.676 75.5829C783.036 78.3662 776.517 79.7579 769.119 79.7579ZM817.43 78V2.41084H839.404L869.068 42.5126V2.41084H889.284V78H867.31L837.646 39.5462V78H817.43ZM901.334 78V2.41084H926.164V78H901.334ZM950.108 78V19.77H933.078V2.41084H992.737V19.77H975.707V78H950.108ZM999.614 78V2.41084H1024.44V78H999.614ZM1036.52 78V2.41084H1089.59V19.1108H1063.22V32.5147H1087.28V46.358H1063.22V60.7507H1089.59V78H1036.52ZM1122.58 79.7579C1117.96 79.7579 1113.27 79.1719 1108.51 78C1103.75 76.9013 1099.72 75.3998 1096.43 73.4954L1100.38 55.5869C1104.63 57.8575 1108.59 59.3591 1112.25 60.0915C1115.98 60.7507 1119.43 61.0803 1122.58 61.0803C1125.51 61.0803 1127.7 60.6042 1129.17 59.652C1130.71 58.6999 1131.48 57.4181 1131.48 55.8067C1131.48 54.3418 1130.63 53.2065 1128.95 52.4008C1127.26 51.5218 1125.07 50.7161 1122.36 49.9837C1119.72 49.2512 1116.9 48.4089 1113.9 47.4567C1110.89 46.4313 1108.04 45.1129 1105.33 43.5015C1102.69 41.8168 1100.53 39.6195 1098.84 36.9094C1097.16 34.1261 1096.32 30.6469 1096.32 26.4719C1096.32 21.1983 1097.6 16.6571 1100.16 12.8483C1102.73 8.9663 1106.39 5.99986 1111.15 3.94899C1115.91 1.82488 1121.51 0.762824 1127.96 0.762824C1132.28 0.762824 1136.49 1.34879 1140.59 2.52071C1144.77 3.61939 1148.1 5.12092 1150.59 7.0253L1146.86 23.1759C1143.12 21.6377 1139.75 20.5391 1136.75 19.8798C1133.82 19.1474 1131.04 18.7812 1128.4 18.7812C1125.32 18.7812 1122.98 19.2206 1121.37 20.0996C1119.76 20.9785 1118.95 22.1505 1118.95 23.6154C1118.95 25.007 1119.79 26.1423 1121.48 27.0213C1123.16 27.9002 1125.32 28.7425 1127.96 29.5482C1130.6 30.3539 1133.42 31.2695 1136.42 32.2949C1139.42 33.3204 1142.24 34.6754 1144.88 36.36C1147.52 38.0447 1149.68 40.242 1151.36 42.9521C1153.05 45.6622 1153.89 49.0681 1153.89 53.1698C1153.89 61.6663 1151.1 68.2218 1145.54 72.8362C1140.04 77.4507 1132.39 79.7579 1122.58 79.7579Z" fill="white"/>
</svg>
