<svg width="676" height="79" viewBox="0 0 676 79" fill="none" xmlns="http://www.w3.org/2000/svg">
<path d="M17.9085 78V19.77H0.878944V2.41084H60.5372V19.77H43.5077V78H17.9085ZM67.4143 78V2.41084H120.481V19.1108H94.1122V32.5147H118.173V46.358H94.1122V60.7507H120.481V78H67.4143ZM130.395 78V2.41084H153.248L172.145 39.1067L190.603 2.41084H213.455V78H190.603V38.4475L176.65 64.8158H167.311L153.248 38.4475V78H130.395ZM219.961 78L240.836 2.41084H276.433L298.297 78H271.379L268.522 63.4974H248.966L245.78 78H219.961ZM251.273 49.9837H265.886L258.744 16.9134L251.273 49.9837ZM323.165 78V62.5086C331.368 54.7446 337.777 47.9694 342.391 42.183C347.006 36.3234 349.313 31.4526 349.313 27.5706C349.313 25.007 348.581 23.1026 347.116 21.8575C345.651 20.5391 343.747 19.8798 341.403 19.8798C336.495 19.8798 331.771 21.3814 327.23 24.3844L321.846 7.24503C325.215 5.12092 328.914 3.50952 332.943 2.41084C337.045 1.31216 341.073 0.762824 345.028 0.762824C351.034 0.762824 355.978 1.82488 359.86 3.94899C363.742 6.07311 366.636 8.9663 368.54 12.6286C370.518 16.2908 371.506 20.4658 371.506 25.1535C371.506 32.2583 369.236 38.8138 364.695 44.8199C360.227 50.826 353.525 56.5391 344.589 61.9593H371.067V78H323.165ZM391.344 78.6592C387.315 78.6592 384.239 77.5972 382.115 75.473C379.991 73.2757 378.929 70.6022 378.929 67.4527C378.929 64.2299 380.064 61.5931 382.334 59.5422C384.605 57.4181 387.608 56.356 391.344 56.356C395.079 56.356 398.046 57.4547 400.243 59.652C402.514 61.8494 403.649 64.4496 403.649 67.4527C403.649 70.822 402.587 73.532 400.463 75.5829C398.412 77.6338 395.372 78.6592 391.344 78.6592ZM391.344 44.1607C387.315 44.1607 384.239 43.0986 382.115 40.9745C379.991 38.7771 378.929 36.1037 378.929 32.9541C378.929 29.7313 380.064 27.0945 382.334 25.0436C384.605 22.9195 387.608 21.8575 391.344 21.8575C395.079 21.8575 398.046 22.9561 400.243 25.1535C402.514 27.3509 403.649 29.9511 403.649 32.9541C403.649 36.3234 402.587 39.0335 400.463 41.0844C398.412 43.1352 395.372 44.1607 391.344 44.1607ZM447.121 78L429.982 2.41084H454.702L461.844 49.5442L469.205 15.2654H494.804L502.275 49.5442L509.417 2.41084H534.137L516.997 78H491.398L482.059 36.5798L472.721 78H447.121ZM542.722 78V2.41084H595.788V19.1108H569.42V32.5147H593.481V46.358H569.42V60.7507H595.788V78H542.722ZM634.269 78H605.703V2.41084H636.576C648.661 2.41084 657.524 4.09548 663.164 7.46477C668.804 10.7608 671.624 15.3386 671.624 21.1983C671.624 28.8158 667.632 34.0528 659.648 36.9094C669.902 38.887 675.03 44.9297 675.03 55.0376C675.03 62.8016 671.477 68.588 664.372 72.3967C657.341 76.1322 647.306 78 634.269 78ZM630.203 32.2949H638.883C641.813 32.2949 644.193 31.6357 646.024 30.3173C647.856 28.9989 648.771 27.241 648.771 25.0436C648.771 19.9897 645.329 17.4628 638.444 17.4628H630.203V32.2949ZM639.542 62.5086C643.204 62.5086 646.024 61.7762 648.002 60.3113C649.98 58.8464 650.968 56.7955 650.968 54.1587C650.968 51.3021 649.98 49.1047 648.002 47.5666C646.024 45.9552 643.204 45.1495 639.542 45.1495H630.094V62.5086H639.542Z" fill="white"/>
</svg>
