<svg width="944" height="80" viewBox="0 0 944 80" fill="none" xmlns="http://www.w3.org/2000/svg">
<path d="M17.9085 78V19.77H0.878944V2.41084H60.5372V19.77H43.5077V78H17.9085ZM67.4143 78V2.41084H120.481V19.1108H94.1122V32.5147H118.173V46.358H94.1122V60.7507H120.481V78H67.4143ZM130.395 78V2.41084H153.248L172.145 39.1067L190.603 2.41084H213.455V78H190.603V38.4475L176.65 64.8158H167.311L153.248 38.4475V78H130.395ZM219.961 78L240.836 2.41084H276.433L298.297 78H271.379L268.522 63.4974H248.966L245.78 78H219.961ZM251.273 49.9837H265.886L258.744 16.9134L251.273 49.9837ZM344.149 79.4283C340.78 79.4283 337.374 79.0621 333.932 78.3296C330.489 77.6704 326.937 76.5351 323.274 74.9237L326.79 58.1139C329.207 59.2858 331.844 60.2014 334.701 60.8606C337.557 61.4466 340.231 61.7395 342.721 61.7395C346.676 61.7395 349.57 61.0071 351.401 59.5422C353.232 58.004 354.147 55.9165 354.147 53.2797C354.147 50.9359 353.415 49.1047 351.95 47.7863C350.485 46.4679 348.581 45.8087 346.237 45.8087C342.355 45.8087 338.912 47.3102 335.909 50.3133L324.044 45.2593L327.669 2.41084H370.847L369.199 18.891H344.149L342.831 32.5147C344.589 31.123 346.493 30.1342 348.544 29.5482C350.668 28.9623 352.682 28.6693 354.587 28.6693C359.568 28.6693 363.596 29.7313 366.672 31.8555C369.822 33.9796 372.129 36.7629 373.594 40.2054C375.059 43.6479 375.791 47.3468 375.791 51.3021C375.791 57.6744 374.473 62.9481 371.836 67.1231C369.199 71.2981 365.5 74.411 360.739 76.4618C356.052 78.4395 350.522 79.4283 344.149 79.4283ZM394.455 78.6592C390.427 78.6592 387.35 77.5972 385.226 75.473C383.102 73.2757 382.04 70.6022 382.04 67.4527C382.04 64.2299 383.175 61.5931 385.446 59.5422C387.717 57.4181 390.72 56.356 394.455 56.356C398.191 56.356 401.157 57.4547 403.354 59.652C405.625 61.8494 406.76 64.4496 406.76 67.4527C406.76 70.822 405.698 73.532 403.574 75.5829C401.523 77.6338 398.484 78.6592 394.455 78.6592ZM394.455 44.1607C390.427 44.1607 387.35 43.0986 385.226 40.9745C383.102 38.7771 382.04 36.1037 382.04 32.9541C382.04 29.7313 383.175 27.0945 385.446 25.0436C387.717 22.9195 390.72 21.8575 394.455 21.8575C398.191 21.8575 401.157 22.9561 403.354 25.1535C405.625 27.3509 406.76 29.9511 406.76 32.9541C406.76 36.3234 405.698 39.0335 403.574 41.0844C401.523 43.1352 398.484 44.1607 394.455 44.1607ZM436.609 78V2.41084H461.439V78H436.609ZM473.518 78V2.41084H495.492L525.156 42.5126V2.41084H545.372V78H523.398L493.734 39.5462V78H473.518ZM557.421 78V2.41084H583.68C594.666 2.41084 603.602 3.98562 610.487 7.13516C617.446 10.2847 622.536 14.6428 625.759 20.2095C629.055 25.7761 630.703 32.2583 630.703 39.6561C630.703 51.7416 626.711 61.1536 618.727 67.8921C610.817 74.6307 598.768 78 582.581 78H557.421ZM581.702 58.7731H588.733C594.593 58.7731 598.951 57.0152 601.808 53.4994C604.664 49.9104 606.093 45.2227 606.093 39.4363C606.093 34.0894 604.701 29.8046 601.918 26.5818C599.208 23.2858 594.813 21.6377 588.733 21.6377H581.702V58.7731ZM639.607 78V2.41084H664.328V30.8666H687.73V2.41084H712.56V78H687.73V48.2258H664.328V78H639.607ZM761.936 79.7579C753.952 79.7579 746.921 78.0732 740.841 74.704C734.762 71.3347 730.001 66.6836 726.559 60.7507C723.189 54.8179 721.505 48.006 721.505 40.3153C721.505 32.5513 723.189 25.7028 726.559 19.77C730.001 13.8371 734.762 9.18604 740.841 5.81675C746.921 2.44747 753.952 0.762824 761.936 0.762824C769.92 0.762824 776.951 2.44747 783.031 5.81675C789.11 9.11279 793.834 13.7272 797.204 19.6601C800.646 25.593 802.367 32.478 802.367 40.3153C802.367 48.006 800.646 54.8179 797.204 60.7507C793.834 66.6836 789.11 71.3347 783.031 74.704C776.951 78.0732 769.92 79.7579 761.936 79.7579ZM761.936 59.7619C766.55 59.7619 770.323 57.9674 773.252 54.3784C776.255 50.7894 777.757 46.065 777.757 40.2054C777.757 36.2502 777.061 32.771 775.669 29.768C774.351 26.7649 772.483 24.4211 770.066 22.7364C767.722 20.9785 764.976 20.0996 761.826 20.0996C757.212 20.0996 753.44 21.9673 750.51 25.7029C747.58 29.3651 746.115 34.1993 746.115 40.2054C746.115 46.065 747.58 50.7894 750.51 54.3784C753.44 57.9674 757.248 59.7619 761.936 59.7619ZM811.276 78V2.41084H835.008V60.6409H861.815L860.717 78H811.276ZM870.18 78V2.41084H896.438C907.425 2.41084 916.361 3.98562 923.246 7.13516C930.204 10.2847 935.295 14.6428 938.518 20.2095C941.814 25.7761 943.462 32.2583 943.462 39.6561C943.462 51.7416 939.47 61.1536 931.486 67.8921C923.576 74.6307 911.527 78 895.34 78H870.18ZM894.461 58.7731H901.492C907.352 58.7731 911.71 57.0152 914.567 53.4994C917.423 49.9104 918.851 45.2227 918.851 39.4363C918.851 34.0894 917.46 29.8046 914.676 26.5818C911.966 23.2858 907.572 21.6377 901.492 21.6377H894.461V58.7731Z" fill="white"/>
</svg>
