<svg width="750" height="82" viewBox="0 0 750 82" fill="none" xmlns="http://www.w3.org/2000/svg">
<mask id="path-1-outside-1_80_150" maskUnits="userSpaceOnUse" x="0" y="0.00128174" width="750" height="82" fill="black">
<rect fill="white" y="0.00128174" width="750" height="82"/>
<path d="M18.9085 79.0013V20.7713H1.87894V3.41212H61.5372V20.7713H44.5077V79.0013H18.9085ZM68.4143 79.0013V3.41212H121.481V20.1121H95.1122V33.5159H119.173V47.3593H95.1122V61.752H121.481V79.0013H68.4143ZM131.395 79.0013V3.41212H154.248L173.145 40.108L191.603 3.41212H214.455V79.0013H191.603V39.4488L177.65 65.8171H168.311L154.248 39.4488V79.0013H131.395ZM220.961 79.0013L241.836 3.41212H277.433L299.297 79.0013H272.379L269.522 64.4987H249.966L246.78 79.0013H220.961ZM252.273 50.9849H266.886L259.744 17.9147L252.273 50.9849ZM345.149 80.2098C341.341 80.2098 337.495 79.807 333.613 79.0013C329.804 78.2688 326.289 77.2068 323.066 75.8151L326.692 59.0053C332.624 61.4224 338.008 62.631 342.842 62.631C348.848 62.631 351.851 60.3604 351.851 55.8191C351.851 52.8893 350.313 50.8018 347.237 49.5567C344.161 48.2383 339.033 47.579 331.855 47.579V32.5271C344.893 32.5271 351.412 29.9269 351.412 24.7265C351.412 23.1151 350.643 21.8699 349.105 20.991C347.64 20.0388 345.589 19.5627 342.952 19.5627C336.799 19.5627 331.269 20.8445 326.362 23.4081L322.077 7.91671C329.255 3.81497 337.349 1.76411 346.358 1.76411C353.756 1.76411 359.579 3.44875 363.827 6.81803C368.075 10.1141 370.199 14.6553 370.199 20.4417C370.199 24.1039 369.284 27.5098 367.453 30.6594C365.695 33.7357 363.168 36.3359 359.872 38.46C364.633 40.1446 368.075 42.6716 370.199 46.0409C372.397 49.3369 373.495 52.7428 373.495 56.2586C373.495 61.166 372.323 65.4143 369.98 69.0033C367.636 72.5923 364.34 75.3756 360.091 77.3533C355.843 79.2576 350.863 80.2098 345.149 80.2098ZM391.914 79.6605C387.886 79.6605 384.81 78.5984 382.686 76.4743C380.561 74.277 379.499 71.6035 379.499 68.454C379.499 65.2312 380.635 62.5943 382.905 60.5435C385.176 58.4193 388.179 57.3573 391.914 57.3573C395.65 57.3573 398.616 58.456 400.814 60.6533C403.084 62.8507 404.22 65.4509 404.22 68.454C404.22 71.8232 403.158 74.5333 401.034 76.5842C398.983 78.6351 395.943 79.6605 391.914 79.6605ZM391.914 45.1619C387.886 45.1619 384.81 44.0999 382.686 41.9758C380.561 39.7784 379.499 37.105 379.499 33.9554C379.499 30.7326 380.635 28.0958 382.905 26.0449C385.176 23.9208 388.179 22.8588 391.914 22.8588C395.65 22.8588 398.616 23.9574 400.814 26.1548C403.084 28.3521 404.22 30.9524 404.22 33.9554C404.22 37.3247 403.158 40.0348 401.034 42.0856C398.983 44.1365 395.943 45.1619 391.914 45.1619ZM469.446 80.7592C462.122 80.7592 455.676 79.4408 450.109 76.8039C444.543 74.1671 440.221 70.395 437.145 65.4875C434.069 60.5068 432.53 54.574 432.53 47.6889V3.41212H456.921V46.5902C456.921 51.4977 458.093 55.1233 460.437 57.4672C462.854 59.7378 466.004 60.8731 469.886 60.8731C473.987 60.8731 477.1 59.7011 479.224 57.3573C481.422 55.0134 482.52 51.7906 482.52 47.6889V3.41212H507.241V47.6889C507.241 54.2077 505.629 59.9575 502.406 64.9382C499.184 69.9189 494.716 73.8009 489.003 76.5842C483.363 79.3675 476.844 80.7592 469.446 80.7592ZM511.714 79.0013L532.699 41.4264L512.374 3.41212H537.314L546.213 23.6278L555.112 3.41212H580.492L560.056 41.4264L581.151 79.0013H555.771L546.213 59.1152L536.654 79.0013H511.714ZM582.339 79.0013L611.564 3.41212H632.878L603.653 79.0013H582.339ZM675.448 80.7592C668.124 80.7592 661.678 79.4408 656.112 76.8039C650.545 74.1671 646.224 70.395 643.147 65.4875C640.071 60.5068 638.533 54.574 638.533 47.6889V3.41212H662.924V46.5902C662.924 51.4977 664.095 55.1233 666.439 57.4672C668.856 59.7378 672.006 60.8731 675.888 60.8731C679.99 60.8731 683.103 59.7011 685.227 57.3573C687.424 55.0134 688.523 51.7906 688.523 47.6889V3.41212H713.243V47.6889C713.243 54.2077 711.632 59.9575 708.409 64.9382C705.186 69.9189 700.718 73.8009 695.005 76.5842C689.365 79.3675 682.846 80.7592 675.448 80.7592ZM723.759 79.0013V3.41212H748.59V79.0013H723.759Z"/>
</mask>
<path d="M18.9085 79.0013H17.764V80.1457H18.9085V79.0013ZM18.9085 20.7713H20.0529V19.6268H18.9085V20.7713ZM1.87894 20.7713H0.734486V21.9157H1.87894V20.7713ZM1.87894 3.41212V2.26767H0.734486V3.41212H1.87894ZM61.5372 3.41212H62.6817V2.26767H61.5372V3.41212ZM61.5372 20.7713V21.9157H62.6817V20.7713H61.5372ZM44.5077 20.7713V19.6268H43.3633V20.7713H44.5077ZM44.5077 79.0013V80.1457H45.6522V79.0013H44.5077ZM18.9085 79.0013H20.0529V20.7713H18.9085H17.764V79.0013H18.9085ZM18.9085 20.7713V19.6268H1.87894V20.7713V21.9157H18.9085V20.7713ZM1.87894 20.7713H3.0234V3.41212H1.87894H0.734486V20.7713H1.87894ZM1.87894 3.41212V4.55658H61.5372V3.41212V2.26767H1.87894V3.41212ZM61.5372 3.41212H60.3928V20.7713H61.5372H62.6817V3.41212H61.5372ZM61.5372 20.7713V19.6268H44.5077V20.7713V21.9157H61.5372V20.7713ZM44.5077 20.7713H43.3633V79.0013H44.5077H45.6522V20.7713H44.5077ZM44.5077 79.0013V77.8568H18.9085V79.0013V80.1457H44.5077V79.0013ZM68.4143 79.0013H67.2698V80.1457H68.4143V79.0013ZM68.4143 3.41212V2.26767H67.2698V3.41212H68.4143ZM121.481 3.41212H122.625V2.26767H121.481V3.41212ZM121.481 20.1121V21.2565H122.625V20.1121H121.481ZM95.1122 20.1121V18.9676H93.9678V20.1121H95.1122ZM95.1122 33.5159H93.9678V34.6604H95.1122V33.5159ZM119.173 33.5159H120.318V32.3715H119.173V33.5159ZM119.173 47.3593V48.5038H120.318V47.3593H119.173ZM95.1122 47.3593V46.2149H93.9678V47.3593H95.1122ZM95.1122 61.752H93.9678V62.8965H95.1122V61.752ZM121.481 61.752H122.625V60.6076H121.481V61.752ZM121.481 79.0013V80.1457H122.625V79.0013H121.481ZM68.4143 79.0013H69.5588V3.41212H68.4143H67.2698V79.0013H68.4143ZM68.4143 3.41212V4.55658H121.481V3.41212V2.26767H68.4143V3.41212ZM121.481 3.41212H120.336V20.1121H121.481H122.625V3.41212H121.481ZM121.481 20.1121V18.9676H95.1122V20.1121V21.2565H121.481V20.1121ZM95.1122 20.1121H93.9678V33.5159H95.1122H96.2567V20.1121H95.1122ZM95.1122 33.5159V34.6604H119.173V33.5159V32.3715H95.1122V33.5159ZM119.173 33.5159H118.029V47.3593H119.173H120.318V33.5159H119.173ZM119.173 47.3593V46.2149H95.1122V47.3593V48.5038H119.173V47.3593ZM95.1122 47.3593H93.9678V61.752H95.1122H96.2567V47.3593H95.1122ZM95.1122 61.752V62.8965H121.481V61.752V60.6076H95.1122V61.752ZM121.481 61.752H120.336V79.0013H121.481H122.625V61.752H121.481ZM121.481 79.0013V77.8568H68.4143V79.0013V80.1457H121.481V79.0013ZM131.395 79.0013H130.251V80.1457H131.395V79.0013ZM131.395 3.41212V2.26767H130.251V3.41212H131.395ZM154.248 3.41212L155.265 2.88816L154.946 2.26767H154.248V3.41212ZM173.145 40.108L172.128 40.632L173.157 42.6311L174.167 40.6223L173.145 40.108ZM191.603 3.41212V2.26767H190.897L190.58 2.89786L191.603 3.41212ZM214.455 3.41212H215.6V2.26767H214.455V3.41212ZM214.455 79.0013V80.1457H215.6V79.0013H214.455ZM191.603 79.0013H190.458V80.1457H191.603V79.0013ZM191.603 39.4488H192.747L190.591 38.9135L191.603 39.4488ZM177.65 65.8171V66.9616H178.339L178.661 66.3524L177.65 65.8171ZM168.311 65.8171L167.301 66.3557L167.624 66.9616H168.311V65.8171ZM154.248 39.4488L155.258 38.9102L153.103 39.4488H154.248ZM154.248 79.0013V80.1457H155.392V79.0013H154.248ZM131.395 79.0013H132.54V3.41212H131.395H130.251V79.0013H131.395ZM131.395 3.41212V4.55658H154.248V3.41212V2.26767H131.395V3.41212ZM154.248 3.41212L153.23 3.93609L172.128 40.632L173.145 40.108L174.163 39.5841L155.265 2.88816L154.248 3.41212ZM173.145 40.108L174.167 40.6223L192.625 3.92639L191.603 3.41212L190.58 2.89786L172.123 39.5938L173.145 40.108ZM191.603 3.41212V4.55658H214.455V3.41212V2.26767H191.603V3.41212ZM214.455 3.41212H213.311V79.0013H214.455H215.6V3.41212H214.455ZM214.455 79.0013V77.8568H191.603V79.0013V80.1457H214.455V79.0013ZM191.603 79.0013H192.747V39.4488H191.603H190.458V79.0013H191.603ZM191.603 39.4488L190.591 38.9135L176.638 65.2818L177.65 65.8171L178.661 66.3524L192.614 39.9841L191.603 39.4488ZM177.65 65.8171V64.6727H168.311V65.8171V66.9616H177.65V65.8171ZM168.311 65.8171L169.321 65.2786L155.258 38.9102L154.248 39.4488L153.238 39.9874L167.301 66.3557L168.311 65.8171ZM154.248 39.4488H153.103V79.0013H154.248H155.392V39.4488H154.248ZM154.248 79.0013V77.8568H131.395V79.0013V80.1457H154.248V79.0013ZM220.961 79.0013L219.858 78.6966L219.457 80.1457H220.961V79.0013ZM241.836 3.41212V2.26767H240.964L240.733 3.10747L241.836 3.41212ZM277.433 3.41212L278.532 3.09413L278.293 2.26767H277.433V3.41212ZM299.297 79.0013V80.1457H300.819L300.396 78.6833L299.297 79.0013ZM272.379 79.0013L271.256 79.2225L271.438 80.1457H272.379V79.0013ZM269.522 64.4987L270.645 64.2775L270.463 63.3543H269.522V64.4987ZM249.966 64.4987V63.3543H249.046L248.848 64.2531L249.966 64.4987ZM246.78 79.0013V80.1457H247.7L247.898 79.2469L246.78 79.0013ZM252.273 50.9849L251.157 50.7328L250.841 52.1294H252.273V50.9849ZM266.886 50.9849V52.1294H268.304L268.004 50.7434L266.886 50.9849ZM259.744 17.9147L260.863 17.6731L258.628 17.6625L259.744 17.9147ZM220.961 79.0013L222.064 79.3059L242.939 3.71678L241.836 3.41212L240.733 3.10747L219.858 78.6966L220.961 79.0013ZM241.836 3.41212V4.55658H277.433V3.41212V2.26767H241.836V3.41212ZM277.433 3.41212L276.334 3.73012L298.197 79.3193L299.297 79.0013L300.396 78.6833L278.532 3.09413L277.433 3.41212ZM299.297 79.0013V77.8568H272.379V79.0013V80.1457H299.297V79.0013ZM272.379 79.0013L273.502 78.7801L270.645 64.2775L269.522 64.4987L268.4 64.7199L271.256 79.2225L272.379 79.0013ZM269.522 64.4987V63.3543H249.966V64.4987V65.6432H269.522V64.4987ZM249.966 64.4987L248.848 64.2531L245.662 78.7557L246.78 79.0013L247.898 79.2469L251.084 64.7443L249.966 64.4987ZM246.78 79.0013V77.8568H220.961V79.0013V80.1457H246.78V79.0013ZM252.273 50.9849V52.1294H266.886V50.9849V49.8405H252.273V50.9849ZM266.886 50.9849L268.004 50.7434L260.863 17.6731L259.744 17.9147L258.626 18.1563L265.767 51.2265L266.886 50.9849ZM259.744 17.9147L258.628 17.6625L251.157 50.7328L252.273 50.9849L253.389 51.2371L260.861 18.1669L259.744 17.9147ZM333.613 79.0013L333.846 77.8807L333.838 77.879L333.829 77.8774L333.613 79.0013ZM323.066 75.8151L321.947 75.5738L321.749 76.493L322.612 76.8658L323.066 75.8151ZM326.692 59.0053L327.123 57.9454L325.86 57.4309L325.573 58.764L326.692 59.0053ZM347.237 49.5567L346.786 50.6086L346.797 50.6132L346.807 50.6175L347.237 49.5567ZM331.855 47.579H330.711V48.7235H331.855V47.579ZM331.855 32.5271V31.3827H330.711V32.5271H331.855ZM349.105 20.991L348.481 21.9506L348.508 21.9684L348.537 21.9847L349.105 20.991ZM326.362 23.4081L325.259 23.7132L325.636 25.0783L326.892 24.4225L326.362 23.4081ZM322.077 7.91671L321.509 6.92304L320.737 7.36441L320.974 8.22181L322.077 7.91671ZM363.827 6.81803L363.116 7.71476L363.125 7.72225L363.827 6.81803ZM367.453 30.6594L366.463 30.0841L366.459 30.0916L367.453 30.6594ZM359.872 38.46L359.252 37.498L357.292 38.7611L359.49 39.5389L359.872 38.46ZM370.199 46.0409L369.231 46.6512L369.239 46.6636L369.247 46.6757L370.199 46.0409ZM369.98 69.0033L370.938 69.6291L369.98 69.0033ZM360.091 77.3533L360.56 78.3976L360.567 78.3942L360.574 78.3908L360.091 77.3533ZM345.149 80.2098V79.0654C341.422 79.0654 337.654 78.6712 333.846 77.8807L333.613 79.0013L333.381 80.1219C337.336 80.9428 341.259 81.3543 345.149 81.3543V80.2098ZM333.613 79.0013L333.829 77.8774C330.094 77.159 326.659 76.1199 323.52 74.7644L323.066 75.8151L322.612 76.8658C325.919 78.2936 329.515 79.3786 333.397 80.1251L333.613 79.0013ZM323.066 75.8151L324.185 76.0564L327.81 59.2466L326.692 59.0053L325.573 58.764L321.947 75.5738L323.066 75.8151ZM326.692 59.0053L326.26 60.0652C332.288 62.521 337.82 63.7754 342.842 63.7754V62.631V61.4865C338.196 61.4865 332.961 60.3239 327.123 57.9454L326.692 59.0053ZM342.842 62.631V63.7754C345.957 63.7754 348.502 63.1924 350.289 61.8409C352.137 60.4437 352.996 58.3655 352.996 55.8191H351.851H350.707C350.707 57.814 350.064 59.1416 348.909 60.0151C347.693 60.9342 345.734 61.4865 342.842 61.4865V62.631ZM351.851 55.8191H352.996C352.996 54.1431 352.552 52.6428 351.619 51.3773C350.694 50.1216 349.346 49.1759 347.666 48.4958L347.237 49.5567L346.807 50.6175C348.204 51.1826 349.163 51.9032 349.776 52.7351C350.382 53.557 350.707 54.5654 350.707 55.8191H351.851ZM347.237 49.5567L347.688 48.5047C344.382 47.0879 339.051 46.4346 331.855 46.4346V47.579V48.7235C339.016 48.7235 343.939 49.3886 346.786 50.6086L347.237 49.5567ZM331.855 47.579H333V32.5271H331.855H330.711V47.579H331.855ZM331.855 32.5271V33.6716C338.417 33.6716 343.482 33.0221 346.947 31.64C348.689 30.945 350.094 30.0388 351.068 28.8732C352.059 27.6871 352.556 26.2881 352.556 24.7265H351.412H350.267C350.267 25.7651 349.95 26.6413 349.311 27.4054C348.656 28.1899 347.616 28.9088 346.099 29.514C343.045 30.7321 338.332 31.3827 331.855 31.3827V32.5271ZM351.412 24.7265H352.556C352.556 22.6571 351.524 21.0554 349.672 19.9973L349.105 20.991L348.537 21.9847C349.761 22.6845 350.267 23.5731 350.267 24.7265H351.412ZM349.105 20.991L349.728 20.0314C348.006 18.9118 345.705 18.4183 342.952 18.4183V19.5627V20.7072C345.473 20.7072 347.274 21.1658 348.481 21.9506L349.105 20.991ZM342.952 19.5627V18.4183C336.636 18.4183 330.921 19.7355 325.832 22.3937L326.362 23.4081L326.892 24.4225C331.618 21.9535 336.963 20.7072 342.952 20.7072V19.5627ZM326.362 23.4081L327.465 23.103L323.18 7.61161L322.077 7.91671L320.974 8.22181L325.259 23.7132L326.362 23.4081ZM322.077 7.91671L322.645 8.91038C329.635 4.91619 337.53 2.90857 346.358 2.90857V1.76411V0.619648C337.168 0.619648 328.876 2.71375 321.509 6.92304L322.077 7.91671ZM346.358 1.76411V2.90857C353.591 2.90857 359.133 4.55558 363.116 7.71471L363.827 6.81803L364.538 5.92135C360.025 2.34192 353.921 0.619648 346.358 0.619648V1.76411ZM363.827 6.81803L363.125 7.72225C367.071 10.7831 369.055 14.9778 369.055 20.4417H370.199H371.344C371.344 14.3327 369.08 9.445 364.528 5.91381L363.827 6.81803ZM370.199 20.4417H369.055C369.055 23.903 368.192 27.1103 366.463 30.0842L367.453 30.6594L368.442 31.2346C370.375 27.9094 371.344 24.3049 371.344 20.4417H370.199ZM367.453 30.6594L366.459 30.0916C364.802 32.9919 362.41 35.4626 359.252 37.498L359.872 38.46L360.492 39.422C363.925 37.2092 366.588 34.4794 368.446 31.2272L367.453 30.6594ZM359.872 38.46L359.49 39.5389C364.074 41.1611 367.277 43.5523 369.231 46.6512L370.199 46.0409L371.167 45.4305C368.873 41.7909 365.191 39.1282 360.253 37.3811L359.872 38.46ZM370.199 46.0409L369.247 46.6757C371.335 49.8084 372.351 52.9967 372.351 56.2586H373.495H374.64C374.64 52.489 373.458 48.8655 371.152 45.4061L370.199 46.0409ZM373.495 56.2586H372.351C372.351 60.9769 371.227 65.0005 369.021 68.3775L369.98 69.0033L370.938 69.6291C373.42 65.8281 374.64 61.3552 374.64 56.2586H373.495ZM369.98 69.0033L369.021 68.3775C366.805 71.7711 363.682 74.4196 359.608 76.3157L360.091 77.3533L360.574 78.3908C364.998 76.3317 368.466 73.4136 370.938 69.6291L369.98 69.0033ZM360.091 77.3533L359.623 76.3089C355.552 78.1341 350.737 79.0654 345.149 79.0654V80.2098V81.3543C350.988 81.3543 356.135 80.3812 360.56 78.3976L360.091 77.3533ZM382.686 76.4743L381.863 77.2697L381.869 77.2767L381.876 77.2836L382.686 76.4743ZM382.905 60.5435L383.672 61.3928L383.68 61.3861L383.687 61.3792L382.905 60.5435ZM400.814 60.6533L400.005 61.4626L400.011 61.4692L400.018 61.4757L400.814 60.6533ZM401.034 76.5842L400.239 75.7609L400.231 75.7678L400.224 75.7749L401.034 76.5842ZM382.686 41.9758L381.863 42.7712L381.869 42.7782L381.876 42.785L382.686 41.9758ZM382.905 26.0449L383.672 26.8942L383.68 26.8875L383.687 26.8807L382.905 26.0449ZM400.814 26.1548L400.005 26.964L400.011 26.9707L400.018 26.9772L400.814 26.1548ZM401.034 42.0856L400.239 41.2623L400.231 41.2693L400.224 41.2764L401.034 42.0856ZM391.914 79.6605V78.516C388.083 78.516 385.339 77.5093 383.495 75.6651L382.686 76.4743L381.876 77.2836C384.28 79.6875 387.689 80.8049 391.914 80.8049V79.6605ZM382.686 76.4743L383.508 75.6789C381.598 73.7021 380.644 71.3168 380.644 68.454H379.499H378.355C378.355 71.8902 379.525 74.8518 381.863 77.2697L382.686 76.4743ZM379.499 68.454H380.644C380.644 65.5354 381.656 63.2139 383.672 61.3928L382.905 60.5435L382.138 59.6942C379.613 61.9748 378.355 64.9269 378.355 68.454H379.499ZM382.905 60.5435L383.687 61.3792C385.704 59.4921 388.407 58.5017 391.914 58.5017V57.3573V56.2128C387.951 56.2128 384.647 57.3466 382.123 59.7077L382.905 60.5435ZM391.914 57.3573V58.5017C395.412 58.5017 398.064 59.5222 400.005 61.4626L400.814 60.6533L401.623 59.8441C399.169 57.3898 395.888 56.2128 391.914 56.2128V57.3573ZM400.814 60.6533L400.018 61.4757C402.079 63.4701 403.075 65.7786 403.075 68.454H404.22H405.364C405.364 65.1232 404.09 62.2313 401.61 59.8309L400.814 60.6533ZM404.22 68.454H403.075C403.075 71.5606 402.107 73.9568 400.239 75.7609L401.034 76.5842L401.828 77.4075C404.208 75.1098 405.364 72.0858 405.364 68.454H404.22ZM401.034 76.5842L400.224 75.7749C398.46 77.539 395.76 78.516 391.914 78.516V79.6605V80.8049C396.126 80.8049 399.505 79.7311 401.843 77.3934L401.034 76.5842ZM391.914 45.1619V44.0175C388.083 44.0175 385.339 43.0108 383.495 41.1665L382.686 41.9758L381.876 42.785C384.28 45.189 387.689 46.3064 391.914 46.3064V45.1619ZM382.686 41.9758L383.508 41.1804C381.598 39.2035 380.644 36.8182 380.644 33.9554H379.499H378.355C378.355 37.3917 379.525 40.3533 381.863 42.7712L382.686 41.9758ZM379.499 33.9554H380.644C380.644 31.0368 381.656 28.7154 383.672 26.8942L382.905 26.0449L382.138 25.1956C379.613 27.4762 378.355 30.4284 378.355 33.9554H379.499ZM382.905 26.0449L383.687 26.8807C385.704 24.9935 388.407 24.0032 391.914 24.0032V22.8587V21.7143C387.951 21.7143 384.647 22.8481 382.123 25.2092L382.905 26.0449ZM391.914 22.8587V24.0032C395.412 24.0032 398.064 25.0236 400.005 26.964L400.814 26.1548L401.623 25.3455C399.169 22.8912 395.888 21.7143 391.914 21.7143V22.8587ZM400.814 26.1548L400.018 26.9772C402.079 28.9715 403.075 31.28 403.075 33.9554H404.22H405.364C405.364 30.6247 404.09 27.7328 401.61 25.3324L400.814 26.1548ZM404.22 33.9554H403.075C403.075 37.0621 402.107 39.4583 400.239 41.2623L401.034 42.0856L401.828 42.909C404.208 40.6113 405.364 37.5873 405.364 33.9554H404.22ZM401.034 42.0856L400.224 41.2764C398.46 43.0404 395.76 44.0175 391.914 44.0175V45.1619V46.3064C396.126 46.3064 399.505 45.2326 401.843 42.8949L401.034 42.0856ZM450.109 76.8039L450.599 75.7696L450.109 76.8039ZM437.145 65.4875L436.171 66.0889L436.175 66.0954L437.145 65.4875ZM432.53 3.41212V2.26767H431.386V3.41212H432.53ZM456.921 3.41212H458.066V2.26767H456.921V3.41212ZM460.437 57.4672L459.628 58.2764L459.64 58.2891L459.653 58.3013L460.437 57.4672ZM479.224 57.3573L478.389 56.5746L478.383 56.5816L478.376 56.5888L479.224 57.3573ZM482.52 3.41212V2.26767H481.376V3.41212H482.52ZM507.241 3.41212H508.385V2.26767H507.241V3.41212ZM502.406 64.9382L503.367 65.5599L502.406 64.9382ZM489.003 76.5842L488.501 75.5553L488.496 75.5579L489.003 76.5842ZM469.446 80.7592V79.6147C462.259 79.6147 455.986 78.3215 450.599 75.7696L450.109 76.8039L449.619 77.8382C455.365 80.56 461.984 81.9036 469.446 81.9036V80.7592ZM450.109 76.8039L450.599 75.7696C445.217 73.2201 441.067 69.5902 438.115 64.8797L437.145 65.4875L436.175 66.0954C439.375 71.1997 443.869 75.1141 449.619 77.8382L450.109 76.8039ZM437.145 65.4875L438.119 64.8861C435.172 60.1159 433.675 54.3995 433.675 47.6889H432.53H431.386C431.386 54.7485 432.965 60.8978 436.171 66.0889L437.145 65.4875ZM432.53 47.6889H433.675V3.41212H432.53H431.386V47.6889H432.53ZM432.53 3.41212V4.55658H456.921V3.41212V2.26767H432.53V3.41212ZM456.921 3.41212H455.777V46.5902H456.921H458.066V3.41212H456.921ZM456.921 46.5902H455.777C455.777 51.6563 456.985 55.6336 459.628 58.2764L460.437 57.4672L461.246 56.6579C459.201 54.6131 458.066 51.339 458.066 46.5902H456.921ZM460.437 57.4672L459.653 58.3013C462.318 60.8048 465.765 62.0175 469.886 62.0175V60.8731V59.7286C466.242 59.7286 463.39 58.6707 461.22 56.633L460.437 57.4672ZM469.886 60.8731V62.0175C474.209 62.0175 477.671 60.7752 480.072 58.1258L479.224 57.3573L478.376 56.5888C476.529 58.6271 473.766 59.7286 469.886 59.7286V60.8731ZM479.224 57.3573L480.059 58.14C482.506 55.5301 483.665 51.9979 483.665 47.6889H482.52H481.376C481.376 51.5834 480.337 54.4968 478.389 56.5746L479.224 57.3573ZM482.52 47.6889H483.665V3.41212H482.52H481.376V47.6889H482.52ZM482.52 3.41212V4.55658H507.241V3.41212V2.26767H482.52V3.41212ZM507.241 3.41212H506.096V47.6889H507.241H508.385V3.41212H507.241ZM507.241 47.6889H506.096C506.096 54.0098 504.537 59.5391 501.446 64.3165L502.406 64.9382L503.367 65.5599C506.722 60.3759 508.385 54.4057 508.385 47.6889H507.241ZM502.406 64.9382L501.446 64.3165C498.344 69.1096 494.041 72.8566 488.501 75.5553L489.003 76.5842L489.504 77.613C495.391 74.7452 500.023 70.7281 503.367 65.5599L502.406 64.9382ZM489.003 76.5842L488.496 75.5579C483.039 78.2509 476.699 79.6147 469.446 79.6147V80.7592V81.9036C476.989 81.9036 483.686 80.4841 489.509 77.6105L489.003 76.5842ZM511.714 79.0013L510.715 78.4433L509.764 80.1457H511.714V79.0013ZM532.699 41.4264L533.698 41.9845L534.003 41.4384L533.708 40.8868L532.699 41.4264ZM512.374 3.41212V2.26767H510.464L511.364 3.95175L512.374 3.41212ZM537.314 3.41212L538.361 2.95102L538.06 2.26767H537.314V3.41212ZM546.213 23.6278L545.165 24.0889L546.213 26.4683L547.26 24.0889L546.213 23.6278ZM555.112 3.41212V2.26767H554.366L554.065 2.95102L555.112 3.41212ZM580.492 3.41212L581.5 3.95402L582.406 2.26767H580.492V3.41212ZM560.056 41.4264L559.048 40.8845L558.75 41.4384L559.058 41.9867L560.056 41.4264ZM581.151 79.0013V80.1457H583.106L582.149 78.441L581.151 79.0013ZM555.771 79.0013L554.74 79.4971L555.052 80.1457H555.771V79.0013ZM546.213 59.1152L547.244 58.6194L546.213 56.4734L545.181 58.6194L546.213 59.1152ZM536.654 79.0013V80.1457H537.374L537.686 79.4971L536.654 79.0013ZM511.714 79.0013L512.714 79.5593L533.698 41.9845L532.699 41.4264L531.7 40.8684L510.715 78.4433L511.714 79.0013ZM532.699 41.4264L533.708 40.8868L513.383 2.8725L512.374 3.41212L511.364 3.95175L531.69 41.9661L532.699 41.4264ZM512.374 3.41212V4.55658H537.314V3.41212V2.26767H512.374V3.41212ZM537.314 3.41212L536.266 3.87323L545.165 24.0889L546.213 23.6278L547.26 23.1667L538.361 2.95102L537.314 3.41212ZM546.213 23.6278L547.26 24.0889L556.16 3.87323L555.112 3.41212L554.065 2.95102L545.165 23.1667L546.213 23.6278ZM555.112 3.41212V4.55658H580.492V3.41212V2.26767H555.112V3.41212ZM580.492 3.41212L579.484 2.87023L559.048 40.8845L560.056 41.4264L561.064 41.9683L581.5 3.95402L580.492 3.41212ZM560.056 41.4264L559.058 41.9867L580.153 79.5615L581.151 79.0013L582.149 78.441L561.054 40.8662L560.056 41.4264ZM581.151 79.0013V77.8568H555.771V79.0013V80.1457H581.151V79.0013ZM555.771 79.0013L556.803 78.5055L547.244 58.6194L546.213 59.1152L545.181 59.611L554.74 79.4971L555.771 79.0013ZM546.213 59.1152L545.181 58.6194L535.623 78.5055L536.654 79.0013L537.686 79.4971L547.244 59.611L546.213 59.1152ZM536.654 79.0013V77.8568H511.714V79.0013V80.1457H536.654V79.0013ZM582.339 79.0013L581.271 78.5886L580.669 80.1457H582.339V79.0013ZM611.564 3.41212V2.26767H610.779L610.496 2.99942L611.564 3.41212ZM632.878 3.41212L633.946 3.82483L634.548 2.26767H632.878V3.41212ZM603.653 79.0013V80.1457H604.438L604.721 79.414L603.653 79.0013ZM582.339 79.0013L583.406 79.414L612.631 3.82483L611.564 3.41212L610.496 2.99942L581.271 78.5886L582.339 79.0013ZM611.564 3.41212V4.55658H632.878V3.41212V2.26767H611.564V3.41212ZM632.878 3.41212L631.811 2.99942L602.586 78.5886L603.653 79.0013L604.721 79.414L633.946 3.82483L632.878 3.41212ZM603.653 79.0013V77.8568H582.339V79.0013V80.1457H603.653V79.0013ZM656.112 76.8039L656.602 75.7696L656.112 76.8039ZM643.147 65.4875L642.174 66.0889L642.178 66.0954L643.147 65.4875ZM638.533 3.41212V2.26767H637.388V3.41212H638.533ZM662.924 3.41212H664.068V2.26767H662.924V3.41212ZM666.439 57.4672L665.63 58.2764L665.643 58.2891L665.656 58.3013L666.439 57.4672ZM685.227 57.3573L684.392 56.5746L684.385 56.5816L684.379 56.5888L685.227 57.3573ZM688.523 3.41212V2.26767H687.378V3.41212H688.523ZM713.243 3.41212H714.388V2.26767H713.243V3.41212ZM708.409 64.9382L709.37 65.5599L708.409 64.9382ZM695.005 76.5842L694.504 75.5553L694.498 75.5579L695.005 76.5842ZM675.448 80.7592V79.6147C668.262 79.6147 661.989 78.3215 656.602 75.7696L656.112 76.8039L655.622 77.8382C661.368 80.56 667.986 81.9036 675.448 81.9036V80.7592ZM656.112 76.8039L656.602 75.7696C651.219 73.2201 647.07 69.5902 644.117 64.8797L643.147 65.4875L642.178 66.0954C645.377 71.1997 649.871 75.1141 655.622 77.8382L656.112 76.8039ZM643.147 65.4875L644.121 64.8861C641.175 60.1159 639.677 54.3995 639.677 47.6889H638.533H637.388C637.388 54.7485 638.967 60.8978 642.174 66.0889L643.147 65.4875ZM638.533 47.6889H639.677V3.41212H638.533H637.388V47.6889H638.533ZM638.533 3.41212V4.55658H662.924V3.41212V2.26767H638.533V3.41212ZM662.924 3.41212H661.779V46.5902H662.924H664.068V3.41212H662.924ZM662.924 46.5902H661.779C661.779 51.6563 662.987 55.6336 665.63 58.2764L666.439 57.4672L667.249 56.6579C665.204 54.6131 664.068 51.339 664.068 46.5902H662.924ZM666.439 57.4672L665.656 58.3013C668.321 60.8048 671.768 62.0175 675.888 62.0175V60.8731V59.7286C672.244 59.7286 669.392 58.6707 667.223 56.633L666.439 57.4672ZM675.888 60.8731V62.0175C680.211 62.0175 683.674 60.7752 686.075 58.1258L685.227 57.3573L684.379 56.5888C682.531 58.6271 679.768 59.7286 675.888 59.7286V60.8731ZM685.227 57.3573L686.062 58.14C688.508 55.5301 689.667 51.9979 689.667 47.6889H688.523H687.378C687.378 51.5834 686.34 54.4968 684.392 56.5746L685.227 57.3573ZM688.523 47.6889H689.667V3.41212H688.523H687.378V47.6889H688.523ZM688.523 3.41212V4.55658H713.243V3.41212V2.26767H688.523V3.41212ZM713.243 3.41212H712.099V47.6889H713.243H714.388V3.41212H713.243ZM713.243 47.6889H712.099C712.099 54.0098 710.539 59.5391 707.448 64.3165L708.409 64.9382L709.37 65.5599C712.724 60.3759 714.388 54.4057 714.388 47.6889H713.243ZM708.409 64.9382L707.448 64.3165C704.347 69.1096 700.043 72.8566 694.504 75.5553L695.005 76.5842L695.506 77.613C701.393 74.7452 706.026 70.7281 709.37 65.5599L708.409 64.9382ZM695.005 76.5842L694.498 75.5579C689.042 78.2509 682.701 79.6147 675.448 79.6147V80.7592V81.9036C682.991 81.9036 689.689 80.4841 695.511 77.6105L695.005 76.5842ZM723.759 79.0013H722.615V80.1457H723.759V79.0013ZM723.759 3.41212V2.26767H722.615V3.41212H723.759ZM748.59 3.41212H749.734V2.26767H748.59V3.41212ZM748.59 79.0013V80.1457H749.734V79.0013H748.59ZM723.759 79.0013H724.904V3.41212H723.759H722.615V79.0013H723.759ZM723.759 3.41212V4.55658H748.59V3.41212V2.26767H723.759V3.41212ZM748.59 3.41212H747.445V79.0013H748.59H749.734V3.41212H748.59ZM748.59 79.0013V77.8568H723.759V79.0013V80.1457H748.59V79.0013Z" fill="white" mask="url(#path-1-outside-1_80_150)"/>
</svg>
