<svg width="748" height="80" viewBox="0 0 748 80" fill="none" xmlns="http://www.w3.org/2000/svg">
<path d="M17.9085 78V19.77H0.878944V2.41084H60.5372V19.77H43.5077V78H17.9085ZM67.4143 78V2.41084H120.481V19.1108H94.1122V32.5147H118.173V46.358H94.1122V60.7507H120.481V78H67.4143ZM130.395 78V2.41084H153.248L172.145 39.1067L190.603 2.41084H213.455V78H190.603V38.4475L176.65 64.8158H167.311L153.248 38.4475V78H130.395ZM219.961 78L240.836 2.41084H276.433L298.297 78H271.379L268.522 63.4974H248.966L245.78 78H219.961ZM251.273 49.9837H265.886L258.744 16.9134L251.273 49.9837ZM344.149 79.2085C340.341 79.2085 336.495 78.8057 332.613 78C328.804 77.2675 325.289 76.2055 322.066 74.8138L325.692 58.004C331.624 60.4211 337.008 61.6297 341.842 61.6297C347.848 61.6297 350.851 59.3591 350.851 54.8179C350.851 51.888 349.313 49.8006 346.237 48.5554C343.161 47.237 338.033 46.5778 330.855 46.5778V31.5259C343.893 31.5259 350.412 28.9256 350.412 23.7252C350.412 22.1138 349.643 20.8687 348.105 19.9897C346.64 19.0375 344.589 18.5614 341.952 18.5614C335.799 18.5614 330.269 19.8432 325.362 22.4068L321.077 6.91543C328.255 2.81369 336.349 0.762824 345.358 0.762824C352.756 0.762824 358.579 2.44747 362.827 5.81675C367.075 9.11279 369.199 13.654 369.199 19.4404C369.199 23.1026 368.284 26.5085 366.453 29.6581C364.695 32.7344 362.168 35.3346 358.872 37.4587C363.633 39.1434 367.075 41.6703 369.199 45.0396C371.397 48.3356 372.495 51.7416 372.495 55.2573C372.495 60.1648 371.323 64.413 368.98 68.002C366.636 71.591 363.34 74.3744 359.091 76.352C354.843 78.2564 349.863 79.2085 344.149 79.2085ZM390.914 78.6592C386.886 78.6592 383.81 77.5972 381.686 75.473C379.561 73.2757 378.499 70.6022 378.499 67.4527C378.499 64.2299 379.635 61.5931 381.905 59.5422C384.176 57.4181 387.179 56.356 390.914 56.356C394.65 56.356 397.616 57.4547 399.814 59.652C402.084 61.8494 403.22 64.4496 403.22 67.4527C403.22 70.822 402.158 73.532 400.034 75.5829C397.983 77.6338 394.943 78.6592 390.914 78.6592ZM390.914 44.1607C386.886 44.1607 383.81 43.0986 381.686 40.9745C379.561 38.7771 378.499 36.1037 378.499 32.9541C378.499 29.7313 379.635 27.0945 381.905 25.0436C384.176 22.9195 387.179 21.8575 390.914 21.8575C394.65 21.8575 397.616 22.9561 399.814 25.1535C402.084 27.3509 403.22 29.9511 403.22 32.9541C403.22 36.3234 402.158 39.0335 400.034 41.0844C397.983 43.1352 394.943 44.1607 390.914 44.1607ZM468.446 79.7579C461.122 79.7579 454.676 78.4395 449.109 75.8026C443.543 73.1658 439.221 69.3937 436.145 64.4862C433.069 59.5056 431.53 53.5727 431.53 46.6876V2.41084H455.921V45.589C455.921 50.4964 457.093 54.122 459.437 56.4659C461.854 58.7365 465.004 59.8718 468.886 59.8718C472.987 59.8718 476.1 58.6999 478.224 56.356C480.422 54.0122 481.52 50.7894 481.52 46.6876V2.41084H506.241V46.6876C506.241 53.2065 504.629 58.9562 501.406 63.9369C498.184 68.9176 493.716 72.7996 488.003 75.5829C482.363 78.3662 475.844 79.7579 468.446 79.7579ZM510.714 78L531.699 40.4252L511.374 2.41084H536.314L545.213 22.6265L554.112 2.41084H579.492L559.056 40.4252L580.151 78H554.771L545.213 58.1139L535.654 78H510.714ZM581.339 78L610.564 2.41084H631.878L602.653 78H581.339ZM674.448 79.7579C667.124 79.7579 660.678 78.4395 655.112 75.8026C649.545 73.1658 645.224 69.3937 642.147 64.4862C639.071 59.5056 637.533 53.5727 637.533 46.6876V2.41084H661.924V45.589C661.924 50.4964 663.095 54.122 665.439 56.4659C667.856 58.7365 671.006 59.8718 674.888 59.8718C678.99 59.8718 682.103 58.6999 684.227 56.356C686.424 54.0122 687.523 50.7894 687.523 46.6876V2.41084H712.243V46.6876C712.243 53.2065 710.632 58.9562 707.409 63.9369C704.186 68.9176 699.718 72.7996 694.005 75.5829C688.365 78.3662 681.846 79.7579 674.448 79.7579ZM722.759 78V2.41084H747.59V78H722.759Z" fill="white"/>
</svg>
