<svg width="1070" height="80" viewBox="0 0 1070 80" fill="none" xmlns="http://www.w3.org/2000/svg">
<path d="M17.9085 78V19.77H0.878944V2.41084H60.5372V19.77H43.5077V78H17.9085ZM67.4143 78V2.41084H120.481V19.1108H94.1122V32.5147H118.173V46.358H94.1122V60.7507H120.481V78H67.4143ZM130.395 78V2.41084H153.248L172.145 39.1067L190.603 2.41084H213.455V78H190.603V38.4475L176.65 64.8158H167.311L153.248 38.4475V78H130.395ZM219.961 78L240.836 2.41084H276.433L298.297 78H271.379L268.522 63.4974H248.966L245.78 78H219.961ZM251.273 49.9837H265.886L258.744 16.9134L251.273 49.9837ZM352.17 78V60.2014H321.736V43.9409L350.961 2.41084H375.572V44.1607H386.119V60.2014H375.572V78H352.17ZM337.887 44.1607H352.17V21.0884L337.887 44.1607ZM403.146 78.6592C399.117 78.6592 396.041 77.5972 393.917 75.473C391.793 73.2757 390.731 70.6022 390.731 67.4527C390.731 64.2299 391.866 61.5931 394.137 59.5422C396.407 57.4181 399.41 56.356 403.146 56.356C406.881 56.356 409.848 57.4547 412.045 59.652C414.316 61.8494 415.451 64.4496 415.451 67.4527C415.451 70.822 414.389 73.532 412.265 75.5829C410.214 77.6338 407.174 78.6592 403.146 78.6592ZM403.146 44.1607C399.117 44.1607 396.041 43.0986 393.917 40.9745C391.793 38.7771 390.731 36.1037 390.731 32.9541C390.731 29.7313 391.866 27.0945 394.137 25.0436C396.407 22.9195 399.41 21.8575 403.146 21.8575C406.881 21.8575 409.848 22.9561 412.045 25.1535C414.316 27.3509 415.451 29.9511 415.451 32.9541C415.451 36.3234 414.389 39.0335 412.265 41.0844C410.214 43.1352 407.174 44.1607 403.146 44.1607ZM439.697 78L460.572 2.41084H496.169L518.033 78H491.115L488.258 63.4974H468.702L465.516 78H439.697ZM471.009 49.9837H485.622L478.48 16.9134L471.009 49.9837ZM523.946 78V2.41084H545.919L575.584 42.5126V2.41084H595.799V78H573.826L544.161 39.5462V78H523.946ZM607.849 78V2.41084H632.679V78H607.849ZM644.758 78V2.41084H667.61L686.507 39.1067L704.965 2.41084H727.818V78H704.965V38.4475L691.012 64.8158H681.673L667.61 38.4475V78H644.758ZM734.323 78L755.198 2.41084H790.795L812.659 78H785.741L782.885 63.4974H763.328L760.142 78H734.323ZM765.635 49.9837H780.248L773.106 16.9134L765.635 49.9837ZM824.966 78V19.77H807.936V2.41084H867.595V19.77H850.565V78H824.966ZM874.472 78V2.41084H899.302V78H874.472ZM948.626 79.7579C940.642 79.7579 933.61 78.0732 927.531 74.704C921.452 71.3347 916.691 66.6836 913.248 60.7507C909.879 54.8179 908.194 48.006 908.194 40.3153C908.194 32.5513 909.879 25.7028 913.248 19.77C916.691 13.8371 921.452 9.18604 927.531 5.81675C933.61 2.44747 940.642 0.762824 948.626 0.762824C956.609 0.762824 963.641 2.44747 969.72 5.81675C975.8 9.11279 980.524 13.7272 983.893 19.6601C987.336 25.593 989.057 32.478 989.057 40.3153C989.057 48.006 987.336 54.8179 983.893 60.7507C980.524 66.6836 975.8 71.3347 969.72 74.704C963.641 78.0732 956.609 79.7579 948.626 79.7579ZM948.626 59.7619C953.24 59.7619 957.012 57.9674 959.942 54.3784C962.945 50.7894 964.447 46.065 964.447 40.2054C964.447 36.2502 963.751 32.771 962.359 29.768C961.041 26.7649 959.173 24.4211 956.756 22.7364C954.412 20.9785 951.665 20.0996 948.516 20.0996C943.901 20.0996 940.129 21.9673 937.199 25.7029C934.27 29.3651 932.805 34.1993 932.805 40.2054C932.805 46.065 934.27 50.7894 937.199 54.3784C940.129 57.9674 943.938 59.7619 948.626 59.7619ZM997.966 78V2.41084H1019.94L1049.6 42.5126V2.41084H1069.82V78H1047.85L1018.18 39.5462V78H997.966Z" fill="white"/>
</svg>
